<?xml version="1.0" standalone="no"?>
<!DOCTYPE svg PUBLIC "-//W3C//DTD SVG 20010904//EN"
 "http://www.w3.org/TR/2001/REC-SVG-20010904/DTD/svg10.dtd">
<svg version="1.0" xmlns="http://www.w3.org/2000/svg"
 width="652.000000pt" height="664.000000pt" viewBox="0 0 652.000000 664.000000"
 preserveAspectRatio="xMidYMid meet">

<g transform="translate(0.000000,664.000000) scale(0.100000,-0.100000)"
fill="#000000" stroke="none">
<path d="M0 3295 l0 -3295 3260 0 3260 0 0 3295 0 3295 -3260 0 -3260 0 0
-3295z m3390 2085 c107 -9 149 -15 260 -42 25 -6 66 -14 92 -19 49 -8 281
-101 365 -146 26 -14 74 -40 106 -57 33 -17 69 -36 80 -43 43 -24 273 -213
331 -272 64 -65 69 -91 18 -91 -36 0 -63 27 -41 41 11 7 9 9 -7 9 -12 0 -27 7
-34 15 -7 8 -23 15 -36 15 -14 0 -33 13 -49 34 -15 19 -32 33 -39 30 -6 -2
-30 11 -53 31 -23 19 -46 35 -52 35 -6 0 -16 9 -23 20 -7 11 -23 20 -36 20
-13 0 -39 16 -59 35 -20 19 -41 35 -47 35 -9 0 -209 93 -258 120 -10 6 -25 10
-35 10 -9 0 -35 9 -57 20 -23 10 -86 29 -141 41 -55 12 -106 26 -113 32 -24
19 -338 38 -457 27 -149 -15 -163 -17 -220 -34 -27 -9 -67 -16 -87 -16 -20 0
-40 -4 -43 -10 -3 -5 -15 -10 -25 -10 -10 0 -31 -5 -47 -12 -15 -6 -33 -10
-39 -9 -7 1 -47 -12 -90 -29 -52 -20 -81 -26 -89 -20 -14 12 -25 3 -25 -21 0
-13 -13 -22 -42 -30 -24 -6 -64 -22 -90 -35 -50 -25 -78 -30 -78 -14 0 6 10
10 22 10 20 0 20 1 5 18 -19 20 -22 42 -8 42 6 0 13 -4 16 -10 3 -5 18 -10 32
-10 l25 0 -23 19 c-30 24 -24 30 71 66 95 35 239 94 265 108 11 5 35 14 52 19
18 4 50 13 71 18 237 64 398 80 632 60z m20 -280 c398 -48 733 -212 1044 -510
296 -283 502 -711 532 -1103 4 -48 10 -90 14 -92 4 -2 39 -5 79 -6 39 -1 75
-7 78 -13 9 -14 5 -170 -8 -276 -41 -354 -187 -716 -403 -1003 -312 -414 -733
-685 -1192 -768 -158 -29 -463 -31 -599 -5 -267 52 -458 126 -690 269 -227
140 -488 404 -673 679 -29 42 -52 80 -52 83 0 3 -11 23 -25 45 -39 61 -114
235 -152 350 -66 200 -97 366 -105 560 l-3 75 50 5 49 5 12 105 c23 206 58
333 140 510 135 289 395 574 724 795 333 222 804 340 1180 295z m-1280 -80 c0
-5 -2 -10 -4 -10 -3 0 -8 5 -11 10 -3 6 -1 10 4 10 6 0 11 -4 11 -10z m94 2
c3 -5 -1 -9 -9 -9 -8 0 -12 4 -9 9 3 4 7 8 9 8 2 0 6 -4 9 -8z m-140 -41 c4
-5 3 -16 0 -25 -5 -12 -10 -13 -31 -3 -23 10 -24 12 -7 24 21 15 31 16 38 4z
m2640 -322 c-10 -16 -24 -9 -24 12 0 18 2 19 15 9 8 -7 12 -16 9 -21z"/>
<path d="M3648 4903 c7 -3 16 -2 19 1 4 3 -2 6 -13 5 -11 0 -14 -3 -6 -6z"/>
<path d="M3798 4853 c7 -3 16 -2 19 1 4 3 -2 6 -13 5 -11 0 -14 -3 -6 -6z"/>
<path d="M3960 4780 c0 -5 5 -10 11 -10 5 0 7 5 4 10 -3 6 -8 10 -11 10 -2 0
-4 -4 -4 -10z"/>
<path d="M4000 4756 c0 -2 7 -7 16 -10 8 -3 12 -2 9 4 -6 10 -25 14 -25 6z"/>
<path d="M4090 4702 c0 -12 19 -26 26 -19 2 2 -2 10 -11 17 -9 8 -15 8 -15 2z"/>
<path d="M4200 4620 c0 -5 5 -10 11 -10 5 0 7 5 4 10 -3 6 -8 10 -11 10 -2 0
-4 -4 -4 -10z"/>
<path d="M4235 4590 c3 -5 11 -10 16 -10 6 0 7 5 4 10 -3 6 -11 10 -16 10 -6
0 -7 -4 -4 -10z"/>
<path d="M3080 4569 c-47 -5 -107 -15 -135 -23 -27 -7 -76 -21 -107 -30 -199
-55 -406 -188 -591 -379 -86 -89 -217 -262 -217 -286 0 -5 24 -12 53 -16 60
-8 163 -38 224 -66 24 -10 49 -19 57 -19 8 0 18 -4 21 -10 7 -12 25 -13 25 -2
0 4 -15 13 -32 21 -18 7 -50 22 -71 32 -21 11 -49 19 -62 19 -14 0 -25 3 -25
8 0 8 -71 32 -95 32 -8 0 -15 7 -15 16 0 8 5 12 10 9 6 -3 10 0 10 8 0 8 16
27 35 41 19 15 35 35 35 44 1 29 36 62 66 62 27 0 27 1 8 15 -19 14 -16 17 21
19 13 1 22 12 29 34 5 17 15 32 23 32 7 0 17 8 21 18 13 35 60 82 76 76 8 -3
19 3 25 15 6 11 33 35 59 52 26 18 50 37 53 42 4 6 15 7 24 3 9 -3 25 -1 37 5
18 10 18 12 4 28 -20 22 -21 35 -1 27 8 -3 15 -1 15 5 0 6 10 9 23 8 25 -3 87
26 87 42 0 28 122 57 285 68 116 8 124 7 249 -25 71 -18 133 -38 136 -45 5 -6
16 -8 29 -4 17 5 28 0 45 -19 24 -29 87 -66 111 -66 16 0 38 -34 28 -44 -3 -3
2 -6 12 -6 9 0 33 -13 52 -30 35 -31 53 -38 53 -19 0 5 4 8 10 4 5 -3 7 -12 4
-20 -3 -7 -1 -22 5 -32 9 -16 10 -16 11 5 0 37 17 17 24 -30 15 -84 12 -121
-12 -172 -20 -44 -95 -163 -111 -176 -13 -11 -71 -101 -71 -110 0 -6 -4 -10
-10 -10 -5 0 -10 5 -10 11 0 5 -5 7 -11 3 -8 -5 -8 -8 0 -14 14 -8 -25 -92
-62 -130 -12 -14 -32 -40 -42 -57 -11 -18 -23 -33 -27 -33 -4 0 -8 -4 -8 -9 0
-5 -18 -37 -40 -70 -42 -63 -46 -71 -31 -71 5 0 19 17 31 38 12 20 53 80 91
133 38 53 69 100 69 105 0 4 8 17 19 28 16 19 142 199 183 264 59 93 82 169
76 263 -2 47 0 69 8 69 6 0 36 -27 67 -59 55 -57 57 -61 57 -113 -1 -29 -7
-71 -15 -93 -8 -22 -15 -40 -15 -40 0 0 42 -1 93 -1 53 -1 116 -8 149 -18 63
-19 153 -74 212 -129 45 -43 67 -50 30 -10 -14 15 -21 29 -15 31 21 7 10 29
-21 43 -22 9 -60 51 -115 124 -209 278 -431 439 -734 529 -116 35 -297 67
-360 65 -19 -1 -72 -5 -119 -10z"/>
<path d="M2119 4553 c-13 -16 -12 -17 4 -4 16 13 21 21 13 21 -2 0 -10 -8 -17
-17z"/>
<path d="M2755 4368 c-62 -21 -126 -66 -182 -127 -60 -63 -34 -63 30 1 35 35
70 68 78 73 25 19 93 43 142 50 26 4 47 11 47 16 0 15 -51 9 -115 -13z"/>
<path d="M3170 4320 c0 -6 7 -10 15 -10 8 0 15 2 15 4 0 2 -7 6 -15 10 -8 3
-15 1 -15 -4z"/>
<path d="M2580 4304 c0 -8 5 -12 10 -9 6 3 10 10 10 16 0 5 -4 9 -10 9 -5 0
-10 -7 -10 -16z"/>
<path d="M3340 4230 c0 -5 5 -10 11 -10 5 0 7 5 4 10 -3 6 -8 10 -11 10 -2 0
-4 -4 -4 -10z"/>
<path d="M2810 4168 c-57 -29 -72 -58 -66 -125 5 -56 14 -70 67 -102 53 -33
56 -25 5 14 -44 34 -46 38 -46 85 0 53 14 74 26 38 l7 -23 9 24 c7 20 10 22
25 10 15 -13 16 -11 10 10 -6 23 -5 23 46 17 29 -4 59 -14 68 -22 9 -8 31 -14
50 -13 19 1 49 -2 67 -6 21 -5 32 -4 32 4 0 6 8 11 18 11 13 0 14 -2 4 -9 -10
-6 -1 -17 35 -43 26 -19 61 -40 77 -47 17 -7 46 -25 66 -41 28 -22 45 -28 83
-28 50 1 66 21 24 32 -13 3 -67 35 -120 70 -53 36 -133 86 -179 112 -79 46
-87 48 -173 52 -79 3 -96 1 -135 -20z m-3 -60 c-3 -8 -6 -5 -6 6 -1 11 2 17 5
13 3 -3 4 -12 1 -19z"/>
<path d="M3400 4185 c0 -6 56 -35 67 -35 4 0 -5 9 -22 20 -29 19 -45 25 -45
15z"/>
<path d="M1750 4165 c0 -8 2 -15 4 -15 2 0 6 7 10 15 3 8 1 15 -4 15 -6 0 -10
-7 -10 -15z"/>
<path d="M2507 4058 c-5 -65 -3 -79 21 -128 28 -60 69 -109 90 -110 9 0 12
-11 10 -32 -3 -32 -1 -33 37 -38 24 -3 39 -10 38 -18 -2 -6 4 -12 12 -12 9 0
27 -11 41 -25 13 -13 30 -22 37 -20 20 8 84 -19 79 -33 -2 -7 5 -12 17 -12 12
0 30 -9 40 -19 12 -12 21 -15 23 -9 3 7 10 8 17 3 11 -6 10 -10 -3 -17 -14 -8
-15 -11 -1 -24 17 -17 39 -9 31 12 -7 17 2 17 33 0 19 -11 21 -14 7 -19 -9 -4
-16 -14 -16 -22 0 -12 6 -15 23 -9 12 3 28 11 35 17 9 7 16 7 24 -1 9 -9 7
-12 -7 -12 -25 0 -9 -15 18 -17 12 0 45 -4 74 -8 51 -7 53 -7 65 21 7 16 25
49 40 73 16 25 28 49 28 55 0 19 -30 -20 -59 -75 -18 -32 -37 -55 -48 -57 -11
-2 -82 32 -159 75 -76 43 -155 85 -174 93 -19 8 -71 34 -115 59 -44 24 -91 50
-105 57 -38 20 -104 103 -124 158 -14 36 -17 63 -12 107 3 33 2 59 -3 59 -4 0
-11 -33 -14 -72z"/>
<path d="M3513 4108 c12 -13 24 -19 25 -15 5 11 -18 37 -34 37 -9 0 -5 -8 9
-22z"/>
<path d="M1688 4069 c-50 -85 -65 -115 -91 -180 -69 -174 -94 -275 -102 -409
-6 -109 9 -86 20 32 7 77 39 221 55 250 6 10 10 24 10 31 0 7 9 32 20 55 11
22 20 46 20 53 0 11 58 121 87 166 8 12 13 28 11 34 -2 7 -16 -8 -30 -32z"/>
<path d="M3494 4045 c-11 -17 -14 -29 -7 -36 7 -7 14 0 23 21 16 40 7 49 -16
15z"/>
<path d="M3463 3989 c-7 -7 -13 -24 -13 -38 0 -23 1 -24 16 -9 9 8 14 25 12
37 -2 18 -5 20 -15 10z"/>
<path d="M2481 3944 c0 -11 3 -14 6 -6 3 7 2 16 -1 19 -3 4 -6 -2 -5 -13z"/>
<path d="M3260 3951 c0 -13 29 -35 37 -28 7 8 -15 37 -28 37 -5 0 -9 -4 -9 -9z"/>
<path d="M2875 3900 c3 -5 13 -10 21 -10 8 0 12 5 9 10 -3 6 -13 10 -21 10 -8
0 -12 -4 -9 -10z"/>
<path d="M2935 3871 c3 -5 22 -15 43 -22 20 -6 43 -16 50 -22 17 -13 71 -44
102 -58 14 -7 58 -27 98 -45 39 -18 72 -29 72 -24 0 5 -16 14 -35 21 -19 7
-35 16 -35 19 0 3 -19 14 -42 24 -72 29 -202 98 -206 109 -2 4 -15 7 -28 7
-14 0 -23 -4 -19 -9z"/>
<path d="M4450 3820 c0 -5 7 -10 15 -10 8 0 15 5 15 10 0 6 -7 10 -15 10 -8 0
-15 -4 -15 -10z"/>
<path d="M3961 3751 c-54 -22 -98 -69 -173 -187 -32 -49 -73 -109 -92 -134
-19 -25 -35 -49 -35 -54 -1 -11 -104 -164 -223 -332 -51 -72 -97 -138 -103
-147 -5 -8 -44 -67 -86 -129 -42 -62 -82 -124 -89 -138 -34 -65 -126 -196
-161 -231 -88 -86 -209 -112 -319 -68 -107 42 -161 86 -199 160 l-33 67 -2
213 c-3 237 -8 266 -60 321 -54 58 -104 85 -195 109 -74 18 -93 20 -148 11
-120 -20 -183 -71 -183 -146 0 -33 24 -97 52 -139 26 -41 118 -101 145 -94 17
4 16 4 -2 11 -74 28 -109 61 -141 135 -28 62 -29 77 -9 85 8 3 12 12 9 21 -3
8 -11 12 -17 8 -6 -3 -7 -1 -3 6 4 6 16 9 27 6 10 -4 19 -2 19 3 0 14 57 35
75 28 12 -4 15 -1 11 12 -6 17 1 18 81 17 76 -2 88 -4 91 -20 3 -14 11 -16 45
-12 27 4 36 2 26 -4 -11 -7 -9 -9 9 -9 35 0 71 -28 65 -50 -3 -11 0 -20 6 -20
6 0 11 -6 11 -14 0 -20 27 -40 32 -24 3 7 5 -75 5 -182 1 -126 6 -206 13 -225
7 -16 14 -46 16 -65 2 -19 8 -36 14 -38 5 -2 10 -9 10 -14 0 -6 -3 -8 -7 -5
-5 6 -17 -9 -39 -50 -3 -7 1 -19 9 -28 14 -13 16 -11 26 15 11 34 22 41 14 10
-6 -22 7 -26 24 -9 8 8 13 7 18 -1 4 -7 1 -16 -6 -21 -12 -8 -12 -10 0 -18 7
-5 11 -13 8 -18 -9 -14 52 -66 69 -59 8 3 14 -1 14 -8 0 -8 9 -16 21 -19 12
-3 18 -10 14 -16 -4 -7 6 -11 27 -12 18 0 76 -4 128 -8 93 -7 179 5 205 30 5
5 21 9 35 9 26 0 50 16 50 33 0 5 -7 7 -15 3 -9 -3 -15 0 -15 9 0 9 8 14 23
12 19 -2 22 3 22 31 0 29 3 33 21 29 15 -3 24 4 34 27 15 34 19 75 9 82 -10 6
1 44 13 44 5 0 7 -8 4 -17 -3 -10 -1 -25 4 -33 7 -11 10 -3 11 30 1 25 2 51 2
58 -1 16 8 15 34 -3 21 -15 23 -14 39 10 13 20 15 39 11 81 -5 53 -5 55 12 40
21 -19 31 -12 31 21 0 14 6 23 15 23 8 0 15 7 15 15 0 8 5 15 10 15 6 0 10 7
10 15 0 8 9 29 20 47 15 25 17 35 7 46 -10 13 -8 14 12 7 21 -6 23 -5 19 13
-4 15 -2 19 8 15 8 -3 17 2 20 11 3 9 18 16 33 16 14 0 22 4 16 8 -36 26 -38
41 -7 79 16 21 37 54 46 73 27 58 67 120 77 120 5 0 9 7 9 16 0 11 6 14 23 10
12 -3 16 -3 10 0 -19 9 -16 20 17 56 17 18 30 36 30 41 0 5 14 22 31 39 16 17
28 36 25 44 -3 7 2 18 10 24 8 7 14 17 14 22 0 17 89 143 110 156 11 7 19 16
16 20 -2 4 7 12 20 19 14 6 26 7 30 2 10 -17 22 -9 17 11 -4 15 0 20 16 20 11
0 21 4 21 9 0 16 43 20 69 6 14 -7 45 -20 67 -29 37 -13 44 -13 63 0 12 9 21
11 21 4 0 -5 18 -17 40 -26 26 -10 40 -23 40 -34 0 -16 38 -35 49 -24 12 11
-111 110 -157 127 -65 22 -173 22 -231 -2z m177 -18 c-10 -2 -28 -2 -40 0 -13
2 -5 4 17 4 22 1 32 -1 23 -4z m-892 -1110 c-10 -10 -19 5 -10 18 6 11 8 11
12 0 2 -7 1 -15 -2 -18z m-16 -23 c0 -5 -4 -10 -10 -10 -5 0 -10 5 -10 10 0 6
5 10 10 10 6 0 10 -4 10 -10z"/>
<path d="M2422 3724 c14 -14 158 -82 158 -75 0 5 -33 25 -74 45 -70 34 -97 44
-84 30z"/>
<path d="M1949 3663 c-18 -47 -79 -236 -79 -245 0 -4 11 -8 24 -8 14 0 37 -5
53 -12 28 -12 284 -18 277 -7 -2 3 -25 9 -51 13 -26 4 -68 10 -93 14 -42 7
-43 9 -20 17 14 5 28 10 33 11 4 1 8 2 10 3 1 1 27 4 57 7 56 5 95 24 50 24
-14 0 -32 4 -40 10 -16 10 -9 14 40 23 14 2 33 8 43 12 13 6 17 2 17 -18 0
-22 7 -27 48 -38 26 -6 64 -12 84 -12 22 -1 33 -4 25 -9 -8 -5 -5 -8 10 -8 12
0 24 6 27 13 3 8 8 7 16 -5 6 -10 16 -18 22 -18 6 0 33 -13 60 -30 26 -16 54
-30 61 -30 7 0 18 -9 25 -20 7 -11 17 -20 22 -20 17 0 70 -43 70 -56 0 -8 9
-10 23 -7 18 5 20 3 10 -8 -20 -21 -15 -30 12 -23 19 5 25 2 25 -11 0 -11 6
-15 18 -11 13 4 23 -1 32 -19 7 -14 22 -25 33 -25 11 0 21 -9 24 -21 4 -14 12
-19 24 -16 11 3 22 1 25 -4 3 -5 -2 -9 -10 -9 -10 0 -13 -6 -10 -15 4 -8 17
-15 30 -15 17 0 22 -4 18 -15 -4 -10 3 -18 20 -25 14 -5 26 -14 26 -19 0 -6 7
-8 15 -5 8 4 15 1 15 -6 0 -7 7 -18 15 -24 10 -8 12 -15 5 -26 -6 -10 -10 -11
-10 -3 0 9 -6 8 -19 -4 -15 -12 -17 -20 -9 -33 9 -13 0 -32 -39 -91 -27 -41
-57 -85 -66 -99 -10 -14 -33 -49 -52 -78 -19 -29 -35 -55 -35 -59 0 -4 -17
-22 -37 -40 -30 -28 -43 -33 -72 -31 -23 2 -36 8 -37 18 -3 32 -5 34 -14 20
-8 -11 -10 -8 -9 15 1 17 -2 47 -6 68 -4 23 -3 37 3 37 11 0 10 25 -1 36 -4 4
-7 66 -7 139 0 72 -4 135 -9 141 -5 5 -11 18 -13 29 -2 11 -4 -72 -5 -185 -2
-246 6 -304 47 -325 38 -19 85 -19 118 1 29 17 37 27 197 274 59 91 117 178
127 193 11 16 16 32 12 36 -5 4 -54 39 -109 77 -55 39 -131 93 -170 120 -38
27 -109 74 -157 104 -363 230 -446 273 -626 326 -63 19 -119 34 -124 34 -5 0
-13 -12 -19 -27z m1131 -723 c0 -5 -2 -10 -4 -10 -3 0 -8 5 -11 10 -3 6 -1 10
4 10 6 0 11 -4 11 -10z"/>
<path d="M3920 3670 c-9 -6 -10 -10 -3 -10 6 0 15 5 18 10 8 12 4 12 -15 0z"/>
<path d="M2600 3632 c0 -11 41 -34 48 -28 3 4 -3 13 -14 21 -21 16 -34 19 -34
7z"/>
<path d="M2706 3560 c12 -12 28 -20 35 -18 9 3 0 12 -21 22 l-35 18 21 -22z"/>
<path d="M4353 3525 c0 -22 2 -30 4 -17 2 12 2 30 0 40 -3 9 -5 -1 -4 -23z"/>
<path d="M2795 3500 c10 -11 22 -20 27 -20 4 0 35 -18 67 -40 72 -49 90 -53
28 -5 -25 19 -49 35 -52 35 -4 0 -21 11 -39 25 -39 30 -56 33 -31 5z"/>
<path d="M2255 3374 c11 -4 25 -10 30 -14 15 -12 85 -30 85 -22 0 11 -51 30
-95 36 -22 3 -31 3 -20 0z"/>
<path d="M1488 3364 c-5 -4 -8 -25 -8 -48 0 -28 3 -37 11 -29 6 6 9 27 7 48
-2 20 -6 33 -10 29z"/>
<path d="M4521 3354 c0 -11 3 -14 6 -6 3 7 2 16 -1 19 -3 4 -6 -2 -5 -13z"/>
<path d="M1848 3353 c7 -3 16 -2 19 1 4 3 -2 6 -13 5 -11 0 -14 -3 -6 -6z"/>
<path d="M3914 3303 c-21 -32 -46 -65 -55 -74 -9 -9 -38 -49 -64 -90 -26 -41
-63 -93 -81 -116 -19 -23 -34 -46 -34 -51 0 -6 -11 -23 -24 -39 -12 -15 -35
-50 -51 -78 -15 -27 -41 -70 -58 -95 -62 -91 -67 -99 -67 -106 0 -4 -18 -33
-40 -66 -23 -33 -51 -76 -63 -96 -12 -20 -31 -52 -42 -70 -11 -18 -48 -80 -82
-138 -33 -58 -78 -127 -99 -153 -48 -59 -130 -121 -161 -121 -13 0 -23 -4 -23
-10 0 -6 -35 -10 -84 -10 -71 0 -95 5 -157 31 -41 17 -81 39 -91 50 -9 10 -24
19 -32 19 -9 0 -19 7 -22 15 -4 8 -15 15 -25 15 -11 0 -22 7 -25 15 -4 8 -12
15 -19 15 -7 0 -18 7 -25 15 -7 8 -20 15 -29 15 -21 -1 22 -37 112 -93 95 -59
122 -72 202 -98 64 -20 77 -21 145 -11 78 11 157 44 200 84 23 21 100 123 100
132 0 2 18 33 40 67 22 35 49 80 60 99 20 34 39 64 71 111 9 13 63 98 119 189
104 168 333 514 400 605 33 45 58 95 47 95 -2 0 -21 -26 -43 -57z"/>
<path d="M4031 3247 c-1 -79 -5 -106 -24 -145 -33 -66 -84 -158 -122 -217
-206 -318 -337 -534 -436 -720 -93 -175 -178 -254 -319 -296 l-45 -14 50 -6
c84 -9 315 13 315 31 0 7 125 248 175 335 79 139 122 211 230 380 67 105 145
232 174 284 29 52 70 120 92 151 21 32 39 60 39 64 0 3 11 24 25 46 14 22 25
42 25 45 0 11 -29 4 -33 -7 -4 -10 -6 -10 -6 0 -1 18 -49 14 -60 -5 -8 -16
-11 -14 -22 12 l-12 30 -7 -25 c-6 -22 -8 -19 -13 20 -3 25 -10 65 -15 90 -9
40 -10 35 -11 -53z"/>
<path d="M2390 3311 c0 -5 8 -11 18 -15 9 -3 24 -9 32 -12 8 -3 4 4 -10 15
-27 22 -40 26 -40 12z"/>
<path d="M3343 3294 c-15 -16 -16 -24 -4 -24 8 0 24 30 19 35 -2 2 -9 -3 -15
-11z"/>
<path d="M3120 3286 c0 -2 7 -7 16 -10 8 -3 12 -2 9 4 -6 10 -25 14 -25 6z"/>
<path d="M4449 3233 c-17 -32 -57 -95 -87 -141 -30 -45 -52 -85 -48 -89 7 -7
27 17 48 57 7 14 19 31 26 38 6 7 12 17 12 22 0 5 20 39 45 76 39 58 55 94 41
94 -3 0 -19 -26 -37 -57z"/>
<path d="M1390 3261 c0 -27 17 -35 23 -12 3 14 11 18 25 14 11 -2 23 0 26 6 5
7 -7 11 -33 11 -34 0 -41 -3 -41 -19z"/>
<path d="M4957 3268 c40 -7 54 -14 59 -31 7 -22 8 -22 14 3 4 14 5 28 3 33 -2
4 -32 6 -66 6 l-62 -1 52 -10z"/>
<path d="M2475 3260 c3 -5 8 -10 11 -10 2 0 4 5 4 10 0 6 -5 10 -11 10 -5 0
-7 -4 -4 -10z"/>
<path d="M3298 3235 c-12 -27 -28 -31 -60 -14 -33 18 -31 3 3 -19 l32 -20 29
31 c29 33 35 47 18 47 -6 0 -16 -11 -22 -25z"/>
<path d="M4230 3245 c0 -8 2 -15 4 -15 2 0 6 7 10 15 3 8 1 15 -4 15 -6 0 -10
-7 -10 -15z"/>
<path d="M4285 2981 c-20 -41 -175 -290 -262 -422 -23 -36 -43 -68 -43 -72 0
-3 -13 -25 -29 -49 -35 -53 -77 -126 -90 -155 -6 -12 -24 -41 -41 -64 -16 -23
-30 -46 -30 -50 0 -4 -29 -49 -65 -100 -55 -78 -76 -119 -61 -119 30 0 203 97
192 108 -3 2 -15 -3 -28 -12 -28 -20 -45 -20 -64 -2 -18 18 -18 31 0 48 7 8
24 34 36 58 21 41 78 130 100 157 5 7 10 15 10 17 0 3 21 38 46 78 25 39 69
114 96 165 27 51 53 93 56 93 4 0 20 23 37 50 16 28 33 50 37 50 4 0 8 8 8 18
0 9 11 29 24 43 13 14 27 35 30 47 4 12 12 22 17 22 5 0 9 8 9 18 0 10 7 28
16 40 8 12 14 29 12 38 -2 12 -5 11 -13 -5z"/>
<path d="M4736 2965 c-3 -8 -1 -15 4 -15 6 0 10 7 10 15 0 8 -2 15 -4 15 -2 0
-6 -7 -10 -15z"/>
<path d="M1711 2960 c0 -8 4 -22 9 -30 12 -18 12 -2 0 25 -6 13 -9 15 -9 5z"/>
<path d="M4719 2914 c-6 -16 -22 -53 -35 -82 -13 -29 -24 -57 -24 -63 0 -18
-100 -221 -126 -255 -13 -17 -24 -34 -24 -37 0 -13 -74 -112 -151 -202 -281
-330 -603 -511 -989 -556 -291 -33 -573 35 -852 206 -92 57 -179 118 -228 161
-211 187 -354 264 -488 264 -45 0 -55 3 -59 20 -6 24 -10 25 -30 5 -17 -18
-15 -22 66 -132 49 -67 64 -77 61 -40 -3 38 -1 41 19 23 11 -10 24 -15 30 -12
6 4 18 2 28 -3 10 -5 26 -12 36 -15 10 -3 16 -10 13 -14 -3 -5 11 -14 32 -20
36 -11 44 -20 77 -92 9 -19 37 -55 63 -78 l46 -44 -24 -18 c-14 -11 -26 -15
-28 -10 -2 6 -14 10 -26 10 -21 0 -119 79 -173 140 -13 14 -23 21 -23 15 0
-14 125 -142 185 -190 27 -22 59 -48 70 -58 59 -54 213 -155 324 -211 369
-186 695 -234 1069 -156 247 52 498 173 717 348 82 66 224 206 279 277 22 28
47 57 55 65 24 23 83 112 78 117 -3 2 -28 -29 -57 -69 -54 -75 -203 -228 -222
-228 -7 0 -6 5 2 15 8 9 8 15 2 15 -6 0 -16 -16 -22 -36 -10 -30 -16 -35 -35
-30 -27 7 -39 -3 -23 -21 15 -18 2 -29 -16 -14 -11 9 -16 9 -22 0 -4 -7 -2
-15 4 -17 7 -2 1 -13 -14 -27 -20 -18 -33 -23 -55 -18 -18 3 -29 1 -29 -6 0
-6 7 -11 15 -11 8 0 15 -5 15 -11 0 -7 -10 -9 -24 -5 -19 5 -26 1 -31 -13 -8
-25 -26 -32 -61 -22 l-29 7 27 27 c15 15 34 27 43 27 8 0 15 7 15 15 0 8 3 14
8 13 14 -3 42 14 42 26 0 7 16 31 35 53 19 23 35 46 35 51 0 6 12 24 28 40 45
49 52 60 52 82 0 11 3 20 8 20 4 0 18 20 32 44 13 25 34 49 47 55 15 7 23 19
23 35 0 15 7 25 19 29 13 3 20 18 25 56 4 28 11 49 15 46 5 -3 14 9 20 25 5
17 15 30 20 30 6 0 11 6 11 14 0 9 -8 13 -22 10 -13 -2 -17 -2 -10 2 6 3 12
12 12 20 0 8 7 17 15 21 21 7 45 55 45 87 0 18 4 24 15 20 11 -5 15 1 15 26 0
19 4 29 10 25 6 -4 10 5 8 23 -1 17 3 37 10 45 7 7 15 35 18 61 4 25 10 46 15
46 10 0 24 69 16 77 -4 3 -12 -7 -18 -23z m-632 -1160 c-3 -3 -12 -4 -19 -1
-8 3 -5 6 6 6 11 1 17 -2 13 -5z m-40 -20 c-3 -3 -12 -4 -19 -1 -8 3 -5 6 6 6
11 1 17 -2 13 -5z"/>
<path d="M1740 2906 c0 -13 41 -69 72 -98 15 -15 28 -32 28 -37 0 -6 5 -11 10
-11 6 0 10 2 10 5 0 4 -43 58 -116 144 -2 2 -4 1 -4 -3z"/>
<path d="M4952 2840 c0 -14 2 -19 5 -12 2 6 2 18 0 25 -3 6 -5 1 -5 -13z"/>
<path d="M1480 2826 c0 -14 4 -27 8 -30 5 -3 6 8 4 25 -5 35 -12 38 -12 5z"/>
<path d="M2070 2810 c0 -5 7 -10 16 -10 8 0 12 5 9 10 -3 6 -10 10 -16 10 -5
0 -9 -4 -9 -10z"/>
<path d="M2048 2776 c-10 -7 -18 -18 -18 -24 0 -6 -6 -23 -14 -39 -8 -15 -21
-44 -29 -63 -8 -19 -24 -56 -36 -82 -28 -63 -27 -73 12 -88 125 -47 247 -123
453 -283 13 -10 24 -15 24 -10 0 10 -58 63 -69 63 -4 0 -18 11 -31 25 -13 14
-29 25 -36 25 -6 0 -14 7 -18 15 -3 8 -12 15 -19 15 -8 0 -22 10 -33 21 -10
12 -38 30 -61 40 -24 10 -43 22 -43 27 0 4 -16 14 -37 21 -47 17 -128 69 -127
81 3 33 5 35 14 20 8 -11 9 -9 5 11 -5 18 3 43 24 83 17 31 31 63 31 71 0 8 9
15 20 15 17 0 19 3 10 19 -7 13 -7 22 0 26 12 7 13 25 3 25 -5 0 -16 -7 -25
-14z"/>
<path d="M4916 2743 c-6 -14 -5 -15 5 -6 7 7 10 15 7 18 -3 3 -9 -2 -12 -12z"/>
<path d="M1525 2705 c7 -33 12 -41 20 -33 3 3 -2 18 -11 34 l-16 29 7 -30z"/>
<path d="M4897 2693 c-4 -3 -7 -13 -7 -22 1 -13 3 -13 11 2 11 19 8 33 -4 20z"/>
<path d="M1550 2643 c0 -4 5 -15 10 -23 8 -13 10 -13 10 2 0 9 -4 20 -10 23
-5 3 -10 3 -10 -2z"/>
<path d="M4865 2625 c-3 -11 -16 -41 -27 -67 -12 -27 -19 -50 -16 -53 8 -8 60
114 55 128 -3 7 -7 4 -12 -8z"/>
<path d="M1597 2540 c16 -30 34 -55 41 -56 7 -1 8 0 2 3 -6 2 -19 24 -30 48
-11 24 -25 47 -31 51 -6 4 2 -17 18 -46z"/>
<path d="M2765 2560 c-3 -5 -1 -10 4 -10 6 0 11 5 11 10 0 6 -2 10 -4 10 -3 0
-8 -4 -11 -10z"/>
<path d="M4788 2456 c-16 -19 -28 -41 -28 -48 0 -16 47 40 53 65 7 23 6 22
-25 -17z"/>
<path d="M1650 2441 c0 -6 5 -13 10 -16 6 -3 10 1 10 9 0 9 -4 16 -10 16 -5 0
-10 -4 -10 -9z"/>
<path d="M4727 2353 c-4 -3 -7 -11 -7 -17 0 -6 5 -5 12 2 6 6 9 14 7 17 -3 3
-9 2 -12 -2z"/>
<path d="M1845 2160 c4 -6 11 -8 16 -5 14 9 11 15 -7 15 -8 0 -12 -5 -9 -10z"/>
<path d="M1860 2135 c0 -3 9 -14 20 -25 22 -22 26 -14 6 13 -13 16 -26 23 -26
12z"/>
<path d="M4230 1870 c0 -5 5 -10 10 -10 6 0 10 5 10 10 0 6 -4 10 -10 10 -5 0
-10 -4 -10 -10z"/>
</g>
</svg>
